<svg xmlns="http://www.w3.org/2000/svg" width="64" height="64" fill="none"><path fill="currentcolor" fill-opacity=".26" fill-rule="evenodd" d="m32 10.69 26.248 15.155v22.31L32 63.308 5.75 48.155v-22.31L32 10.69ZM9.75 30.464v15.381L32 58.69l22.248-12.845V30.464L32 43.309 9.75 30.464ZM52.248 27 40.66 33.69l-8.66-5-8.66 5L11.75 27 32 15.31 52.248 27ZM27.34 36 32 38.69 36.66 36 32 33.31 27.34 36ZM30 8V0h4v8h-4Zm14.268 2.751 4-6.928 3.464 2-4 6.928-3.464-2Zm-28 2-4-6.928 3.464-2 4 6.928-3.464 2Z" clip-rule="evenodd"/></svg>